<svg aria-hidden="true" style="position: absolute; width: 0; height: 0; overflow: hidden;" version="1.1" xmlns="http://www.w3.org/2000/svg" xmlns:xlink="http://www.w3.org/1999/xlink">
<defs>

<symbol id="burger" viewBox="0 0 43 32">
<path d="M2.4 31.2c-0.68 0-1.25-0.243-1.709-0.73s-0.69-1.088-0.691-1.804c-0.002-0.716 0.229-1.317 0.691-1.804s1.032-0.73 1.709-0.73h38.4c0.68 0 1.25 0.243 1.711 0.73s0.69 1.088 0.689 1.804c-0.002 0.716-0.232 1.318-0.691 1.806s-1.029 0.73-1.709 0.727h-38.4zM2.4 18.533c-0.68 0-1.25-0.243-1.709-0.73s-0.69-1.088-0.691-1.804c-0.002-0.716 0.229-1.317 0.691-1.804s1.032-0.73 1.709-0.73h38.4c0.68 0 1.25 0.243 1.711 0.73s0.69 1.088 0.689 1.804c-0.002 0.716-0.232 1.318-0.691 1.806s-1.029 0.73-1.709 0.727h-38.4zM2.4 5.867c-0.68 0-1.25-0.243-1.709-0.73s-0.69-1.088-0.691-1.804c-0.002-0.716 0.229-1.317 0.691-1.804s1.032-0.73 1.709-0.73h38.4c0.68 0 1.25 0.243 1.711 0.73s0.69 1.088 0.689 1.804c-0.002 0.716-0.232 1.318-0.691 1.806s-1.029 0.73-1.709 0.727h-38.4z"></path>
</symbol>
</defs>
</svg>
